<?xml version="1.0" standalone="no"?>
<!DOCTYPE svg PUBLIC "-//W3C//DTD SVG 20010904//EN"
 "http://www.w3.org/TR/2001/REC-SVG-20010904/DTD/svg10.dtd">
<svg version="1.0" xmlns="http://www.w3.org/2000/svg"
 width="720.000000pt" height="720.000000pt" viewBox="0 0 720.000000 720.000000"
 preserveAspectRatio="xMidYMid meet">
<metadata>
Created by potrace 1.11, written by Peter Selinger 2001-2013
</metadata>
<g transform="translate(0.000000,720.000000) scale(0.100000,-0.100000)"
fill="#000000" stroke="none">
<path d="M217 6362 l-38 -39 48 -42 c26 -24 65 -58 85 -77 20 -19 40 -34 45
-34 8 0 141 -137 273 -281 41 -45 99 -107 128 -137 28 -30 50 -57 48 -59 -2
-2 17 -26 43 -53 25 -27 60 -66 77 -87 18 -21 46 -54 63 -74 17 -20 31 -41 31
-45 1 -5 14 -20 30 -34 17 -13 30 -30 30 -37 0 -6 6 -16 13 -20 7 -4 29 -30
48 -58 42 -61 50 -72 69 -94 8 -9 22 -30 30 -46 8 -17 23 -39 33 -49 9 -11 26
-39 38 -62 11 -24 23 -44 27 -46 12 -5 46 -78 39 -84 -3 -3 3 -14 13 -24 11
-11 17 -28 15 -40 -2 -11 1 -20 7 -20 6 0 8 -11 6 -25 -3 -14 -1 -25 3 -25 5
0 9 -11 9 -24 0 -14 4 -27 9 -30 5 -3 7 -19 6 -36 -1 -16 1 -30 5 -30 4 0 11
-24 14 -52 4 -29 11 -57 16 -63 18 -22 4 -50 -26 -51 -16 -1 -33 2 -39 6 -5 4
-100 6 -211 6 -206 -1 -234 -6 -234 -42 0 -8 -5 -14 -12 -14 -6 0 -9 -3 -5 -6
3 -4 -4 -21 -17 -38 -16 -21 -23 -42 -21 -66 2 -42 -13 -80 -33 -80 -8 0 -12
-6 -8 -15 3 -10 -3 -17 -19 -21 -14 -3 -25 -10 -25 -15 0 -5 -5 -8 -11 -7 -10
3 -14 -6 -23 -52 -2 -8 -8 -26 -13 -38 -5 -15 -6 -48 0 -85 4 -34 8 -74 7 -89
0 -16 3 -28 8 -28 5 0 9 -12 10 -27 4 -66 13 -118 20 -121 5 -1 7 -19 5 -39
-1 -20 2 -43 8 -50 6 -7 9 -19 6 -27 -3 -8 0 -20 8 -26 7 -6 21 -26 30 -45 9
-19 20 -35 26 -35 6 0 8 -4 5 -9 -3 -5 1 -14 8 -20 18 -15 388 -7 416 9 13 7
90 7 90 0 0 -5 12 -6 28 -3 15 2 42 5 60 6 17 1 32 5 32 10 0 4 15 7 34 7 19
0 38 4 41 10 3 5 16 8 28 6 12 -3 25 -5 29 -5 10 -1 22 -43 19 -63 -1 -10 2
-18 7 -18 6 0 9 -8 7 -17 -1 -10 1 -22 5 -28 9 -12 24 -67 22 -77 -1 -5 3 -8
9 -8 6 0 9 -7 5 -15 -3 -8 -1 -15 4 -15 6 0 10 -9 10 -19 0 -11 5 -23 10 -26
6 -4 8 -11 5 -16 -4 -5 -2 -9 4 -9 6 0 13 -11 17 -25 3 -14 11 -25 16 -25 6 0
8 -6 5 -14 -3 -8 5 -30 18 -50 13 -19 21 -37 17 -40 -3 -3 0 -6 6 -6 7 0 12
-4 12 -10 0 -9 39 -72 60 -97 5 -7 10 -15 10 -19 0 -3 18 -28 40 -54 22 -26
40 -51 40 -54 0 -14 241 -243 295 -281 32 -22 67 -48 77 -57 10 -10 21 -19 26
-20 29 -6 42 -11 42 -18 0 -4 15 -15 33 -24 17 -9 39 -20 47 -25 8 -5 45 -23
82 -40 36 -17 69 -35 72 -40 4 -5 -19 -10 -54 -10 -33 0 -60 4 -60 8 0 5 -10
7 -22 7 -13 -1 -29 2 -35 7 -7 5 -22 7 -32 4 -11 -3 -22 0 -23 5 -2 5 -19 11
-38 14 -19 2 -42 5 -50 7 -30 7 -75 19 -90 24 -8 3 -24 7 -35 9 -46 9 -101 22
-125 31 -8 3 -24 6 -35 6 -11 1 -23 6 -27 11 -16 22 -23 -13 -22 -98 1 -52 -3
-89 -10 -95 -6 -4 -118 -8 -249 -8 l-238 0 -44 -28 c-25 -15 -45 -32 -45 -37
0 -5 -4 -7 -9 -3 -5 3 -19 -7 -31 -22 -12 -16 -23 -26 -25 -23 -2 3 -15 -5
-29 -17 -14 -13 -26 -20 -26 -16 0 3 -8 -4 -19 -15 -10 -12 -20 -19 -23 -16
-3 3 -15 -6 -26 -20 -10 -14 -22 -22 -26 -18 -11 10 -24 -18 -19 -39 3 -10 10
-19 16 -19 6 0 7 -3 4 -7 -4 -3 -2 -13 5 -20 9 -11 9 -16 -2 -23 -8 -5 -17 -7
-21 -4 -4 2 -10 0 -14 -6 -3 -5 -12 -10 -20 -10 -8 0 -26 -5 -42 -12 -15 -6
-33 -10 -40 -9 -6 1 -14 -3 -18 -9 -3 -5 -16 -10 -28 -10 -25 0 -283 -251
-271 -263 4 -4 3 -7 -3 -7 -6 0 -14 -16 -17 -35 -4 -19 -11 -35 -16 -35 -6 0
-9 -3 -8 -8 1 -7 -7 -31 -25 -72 -6 -14 -11 -28 -11 -32 -1 -3 -4 -10 -9 -14
-21 -21 -5 -34 43 -34 28 0 50 -2 50 -4 0 -3 -11 -25 -24 -50 -14 -26 -22 -46
-19 -46 2 0 -3 -7 -11 -16 -9 -8 -16 -23 -16 -33 0 -9 -4 -21 -9 -26 -6 -6
-25 -40 -44 -76 -34 -66 -34 -67 -15 -92 11 -15 19 -30 20 -34 1 -15 23 -58
31 -64 5 -3 9 -10 9 -15 1 -14 22 -58 31 -65 4 -3 7 -10 6 -15 -2 -5 8 -30 20
-56 l23 -48 378 0 379 0 -2 70 c0 38 2 72 6 76 11 11 8 194 -3 194 -5 0 -7 7
-4 15 4 8 3 23 -2 33 -4 9 -8 19 -9 22 -20 65 -28 97 -26 108 1 6 -3 12 -10
12 -6 0 -9 7 -6 15 4 8 2 17 -3 20 -6 4 -10 22 -10 41 l0 34 73 0 c77 0 93 9
119 66 6 13 15 24 20 24 4 0 7 4 5 8 -1 5 8 21 21 38 l24 29 1595 -2 c1498 -1
1596 -2 1614 -19 10 -9 19 -21 19 -26 0 -8 38 -67 51 -78 3 -3 8 -13 12 -23 5
-14 19 -17 77 -17 50 0 76 -4 86 -15 9 -8 11 -15 6 -15 -8 0 -14 -17 -27 -75
-1 -5 -3 -12 -4 -15 -5 -10 -11 -36 -17 -67 -4 -18 -10 -33 -14 -33 -5 0 -6
-9 -3 -20 3 -12 0 -20 -6 -20 -7 0 -11 -6 -10 -12 1 -7 -1 -21 -6 -31 -4 -10
-4 -35 0 -55 4 -20 8 -91 9 -157 l1 -120 377 -3 376 -2 44 87 c23 48 42 91 40
95 -1 5 2 8 7 8 8 0 17 20 26 58 2 7 12 27 22 45 19 32 18 33 -3 72 -12 22
-19 43 -17 48 2 4 -1 7 -6 7 -6 0 -11 7 -11 15 0 8 -5 15 -11 15 -5 0 -8 4 -4
9 3 5 1 12 -5 16 -6 4 -8 11 -5 16 4 5 0 9 -7 9 -7 0 -14 12 -15 26 0 15 -5
29 -10 33 -5 3 -17 21 -26 39 -19 39 -10 46 53 40 22 -2 40 -2 40 0 0 1 -7 19
-16 40 -8 20 -15 38 -14 40 0 1 -7 17 -17 35 -9 17 -17 37 -18 42 0 6 -11 31
-23 56 -24 49 -265 296 -284 291 -5 -1 -16 2 -24 9 -7 6 -18 8 -23 5 -5 -4
-12 -2 -15 3 -3 5 -22 12 -42 15 -20 4 -46 12 -59 18 l-24 11 26 38 26 39 -32
32 c-17 17 -31 28 -31 24 0 -7 -88 57 -121 89 -9 8 -19 15 -23 15 -3 0 -29 18
-57 40 -28 22 -58 40 -67 41 -10 0 -123 1 -252 2 l-235 2 -2 99 c-2 96 -7 121
-21 100 -4 -5 -14 -10 -22 -10 -16 -1 -65 -12 -90 -21 -8 -3 -25 -7 -37 -9
-96 -16 -133 -25 -133 -34 0 -4 -12 -6 -27 -4 -15 1 -32 -1 -38 -6 -5 -4 -30
-11 -55 -15 -25 -4 -49 -10 -55 -13 -27 -16 -198 -26 -193 -11 2 6 7 10 12 9
5 -1 12 2 15 7 11 15 52 34 61 28 6 -4 10 -2 10 3 0 6 11 13 24 16 14 3 38 18
55 32 17 14 31 23 31 19 0 -3 12 2 28 13 15 10 32 22 38 25 14 8 84 -53 84
-72 0 -11 3 -11 15 -1 8 7 15 9 15 6 0 -4 18 12 40 36 22 24 40 40 40 35 0 -4
15 8 34 28 19 19 38 35 43 35 10 0 153 144 153 155 0 4 18 25 40 46 22 22 40
42 40 45 0 3 16 25 35 48 19 24 35 48 35 54 0 6 8 16 18 21 9 6 13 11 9 11 -4
0 4 16 19 35 14 19 22 35 18 35 -5 0 -2 6 7 13 15 12 26 33 27 51 0 5 4 12 9
15 13 9 53 96 53 115 0 9 5 16 11 16 5 0 7 5 4 10 -3 6 -1 10 4 10 6 0 10 3 9
8 -3 15 15 62 24 62 6 0 8 9 5 20 -3 11 -1 20 3 20 5 0 11 18 15 40 7 44 3 42
108 41 51 0 60 3 84 29 14 16 29 28 32 25 4 -2 17 10 30 26 13 16 28 29 35 29
6 0 27 16 46 35 19 19 38 35 42 35 5 0 19 12 32 27 l24 27 303 1 304 0 -1 27
0 26 383 0 c408 0 434 2 397 43 -16 18 -13 69 4 69 9 0 7 177 -3 208 -4 12
-12 22 -17 22 -5 0 0 12 10 28 16 22 18 31 9 47 -12 19 -23 20 -382 19 -203
-1 -377 0 -386 2 -11 3 -16 14 -14 34 l3 30 -318 0 c-304 0 -318 1 -335 20
-10 11 -22 20 -26 20 -5 0 -21 13 -37 28 -29 28 -30 29 -148 27 -65 -1 -125 1
-131 3 -7 2 -13 15 -13 28 0 13 -4 24 -9 24 -5 0 -8 11 -5 24 2 14 0 27 -5 30
-5 4 -12 24 -16 46 -4 22 -10 40 -14 40 -4 0 -8 6 -9 13 -2 28 -26 102 -35
108 -5 3 -9 10 -9 15 -1 11 -21 57 -28 64 -9 8 -34 64 -32 73 1 4 -3 7 -8 7
-5 0 -9 3 -8 8 2 7 -21 54 -31 62 -4 3 -12 16 -19 30 -18 38 -35 63 -52 77 -8
7 -11 13 -6 13 4 0 -5 15 -20 33 -16 18 -38 46 -49 61 -26 38 -255 269 -255
259 -1 -4 -8 1 -18 12 -9 11 -41 39 -70 62 -53 41 -53 42 -73 22 -10 -10 -19
-22 -19 -26 0 -4 -9 -17 -21 -29 -19 -21 -44 -22 -59 -4 -3 3 -27 19 -55 35
-27 15 -53 32 -56 37 -3 6 -9 9 -13 9 -8 -1 -36 8 -66 22 -14 6 -28 10 -32 9
-5 -1 -8 2 -8 7 0 8 -11 12 -62 26 -5 2 -10 4 -13 5 -3 1 -8 3 -12 5 -5 1 -21
7 -36 13 -16 7 -35 12 -43 12 -8 0 -14 4 -14 10 0 5 -10 10 -22 10 -33 -1 -88
11 -88 19 0 3 -15 7 -32 9 -57 5 -92 9 -118 15 -63 16 -320 27 -320 15 0 -4
-31 -8 -69 -8 -39 0 -72 -4 -75 -9 -3 -4 -22 -6 -42 -4 -20 2 -42 -1 -50 -8
-7 -6 -18 -8 -24 -4 -6 4 -16 2 -23 -3 -7 -5 -30 -13 -52 -17 -44 -9 -53 -11
-60 -15 -5 -3 -6 -3 -50 -15 -16 -4 -36 -13 -44 -19 -8 -6 -16 -10 -18 -8 -7
6 -83 -21 -83 -30 0 -4 -3 -7 -7 -6 -11 2 -67 -25 -75 -37 -4 -5 -8 -7 -8 -3
0 3 -24 -7 -52 -23 -29 -16 -61 -32 -70 -35 -10 -4 -18 -10 -18 -15 0 -5 -6
-9 -13 -9 -7 0 -32 -16 -55 -36 -23 -19 -42 -33 -42 -31 0 10 -54 -38 -182
-163 -70 -69 -128 -130 -128 -137 0 -7 -4 -13 -9 -13 -8 0 -68 -75 -96 -119
-5 -9 -16 -20 -23 -24 -7 -5 -10 -12 -7 -18 4 -5 2 -9 -3 -9 -5 0 -12 -8 -15
-17 -4 -10 -17 -37 -31 -60 -13 -22 -22 -44 -19 -47 4 -3 2 -6 -4 -6 -6 0 -21
-27 -33 -60 -12 -33 -26 -60 -30 -60 -5 0 -6 -9 -3 -20 3 -11 1 -20 -5 -20 -6
0 -9 -9 -7 -21 4 -20 1 -20 -53 -15 -82 7 -82 8 -82 27 0 10 -5 21 -11 24 -6
4 -8 13 -5 21 3 7 1 16 -4 19 -6 4 -10 15 -10 26 0 10 -4 19 -9 19 -5 0 -7 9
-4 20 3 11 1 20 -5 20 -6 0 -13 18 -17 40 -4 22 -11 40 -16 40 -4 0 -6 6 -3
14 3 8 1 17 -5 21 -6 3 -11 12 -11 20 0 8 -4 24 -9 37 -5 13 -10 28 -11 33 -1
6 -5 15 -10 20 -4 6 -11 34 -15 63 -4 28 -11 52 -15 52 -5 0 -7 9 -5 20 2 11
0 22 -6 25 -5 4 -9 18 -9 33 0 41 -14 55 -57 56 -25 1 -37 5 -35 14 1 6 -3 12
-10 12 -6 0 -9 3 -5 6 3 3 2 11 -4 18 -58 71 -89 112 -89 119 0 5 -18 30 -40
56 -22 26 -40 51 -40 55 0 4 -11 17 -25 30 -13 13 -22 25 -19 28 2 3 -9 17
-26 31 -16 14 -30 29 -30 34 0 4 -14 23 -31 41 -16 17 -28 32 -25 32 6 0 -22
32 -102 117 -27 29 -47 55 -45 57 2 2 -19 26 -46 54 -28 27 -51 53 -51 58 0 4
-27 34 -60 66 -33 31 -60 61 -60 65 0 5 -40 49 -90 98 -49 49 -90 95 -90 101
0 7 -7 15 -16 18 -8 3 -13 10 -10 15 3 4 -13 24 -35 42 -22 19 -58 51 -81 72
-22 20 -43 37 -47 37 -4 0 -24 -17 -44 -38z"/>
</g>
</svg>
